<svg xmlns="http://www.w3.org/2000/svg" viewBox="0 0 512 512" width="512" height="512">
  <rect width="512" height="512" rx="113" fill="#F5F3FA"></rect>
  <g transform="translate(51.2 26) scale(3.41)">
  <polygon points="60,94 104,116 60,138 16,116" fill="#2a2440"></polygon>
  <polygon points="60,84 104,106 60,128 16,106" fill="#4c3a86"></polygon>
  <polygon points="16,106 60,128 60,136 16,114" fill="#33275e"></polygon>
  <polygon points="104,106 60,128 60,136 104,114" fill="#241b45"></polygon>
  <polygon points="60,72 104,94 60,116 16,94" fill="#5b21b6"></polygon>
  <polygon points="16,94 60,116 60,124 16,102" fill="#40188a"></polygon>
  <polygon points="104,94 60,116 60,124 104,102" fill="#31126b"></polygon>
  <polygon points="60,8 104,30 60,52 16,30" fill="#a78bfa"></polygon>
  <polygon points="16,30 60,52 60,62 16,40" fill="#7C3AED"></polygon>
  <polygon points="104,30 60,52 60,62 104,40" fill="#5b21b6"></polygon>
  <polygon points="62,18 36,31 75,38" fill="#ffffff"></polygon>
  </g>
</svg>